# xmcd
#
# Track frame offsets: 
#        150
#        18521
#        36261
#        53223
#        68774
#        86397
#        109256
#        123465
#        138120
#        155289
#        170425
#
# Disc length: 2503 seconds
#
# Revision: 1
# Processed by: cddbd v1.5.2PL0 Copyright (c) Steve Scherf et al.
# Submitted via: ExactAudioCopy v1.0b3
#
DISCID=8a09c50b
DTITLE=Miss Li - Beats and Bruises
DYEAR=2011
DGENRE=Blues
TTITLE0=Devil’s Taken Her Man
TTITLE1=I Can’t Get You Off My Mind
TTITLE2=My Man
TTITLE3=Shoot Me
TTITLE4=You Could Have It (So Much Better Without Me)
TTITLE5=Forever Drunk
TTITLE6=Hit It
TTITLE7=Arrested
TTITLE8=Billy’s Got A Gun
TTITLE9=The Modern Family
TTITLE10=Are You Happy Now?
EXTD=
EXTT0=
EXTT1=
EXTT2=
EXTT3=
EXTT4=
EXTT5=
EXTT6=
EXTT7=
EXTT8=
EXTT9=
EXTT10=
PLAYORDER=
